<svg xmlns="http://www.w3.org/2000/svg" xmlns:xlink="http://www.w3.org/1999/xlink" width="1920" zoomAndPan="magnify" viewBox="0 0 1440 359.999987" height="480" preserveAspectRatio="xMidYMid meet" version="1.0"><defs><g/></defs><g fill="#00ffff" fill-opacity="1"><g transform="translate(48.860929, 303.299656)"><g><path d="M 56.40625 -28.203125 L 56.40625 -56.40625 L 28.203125 -56.40625 L 28.203125 -84.609375 L 0 -84.609375 L 0 -169.203125 L 28.203125 -169.203125 L 28.203125 -197.40625 L 56.40625 -197.40625 L 56.40625 -225.609375 L 169.203125 -225.609375 L 169.203125 -197.40625 L 197.40625 -197.40625 L 197.40625 -169.203125 L 141 -169.203125 L 141 -197.40625 L 84.609375 -197.40625 L 84.609375 -169.203125 L 56.40625 -169.203125 L 56.40625 -84.609375 L 84.609375 -84.609375 L 84.609375 -56.40625 L 141 -56.40625 L 141 -84.609375 L 197.40625 -84.609375 L 197.40625 -56.40625 L 169.203125 -56.40625 L 169.203125 -28.203125 Z M 56.40625 -28.203125 "/></g></g></g><g fill="#00ffff" fill-opacity="1"><g transform="translate(274.472753, 303.299656)"><g><path d="M 28.203125 -28.203125 L 28.203125 -56.40625 L 0 -56.40625 L 0 -84.609375 L 56.40625 -84.609375 L 56.40625 -56.40625 L 141 -56.40625 L 141 -112.796875 L 28.203125 -112.796875 L 28.203125 -141 L 0 -141 L 0 -197.40625 L 28.203125 -197.40625 L 28.203125 -225.609375 L 169.203125 -225.609375 L 169.203125 -197.40625 L 197.40625 -197.40625 L 197.40625 -169.203125 L 141 -169.203125 L 141 -197.40625 L 56.40625 -197.40625 L 56.40625 -141 L 169.203125 -141 L 169.203125 -112.796875 L 197.40625 -112.796875 L 197.40625 -56.40625 L 169.203125 -56.40625 L 169.203125 -28.203125 Z M 28.203125 -28.203125 "/></g></g></g><g fill="#00ffff" fill-opacity="1"><g transform="translate(500.084578, 303.299656)"><g><path d="M 28.203125 -28.203125 L 28.203125 -56.40625 L 0 -56.40625 L 0 -84.609375 L 56.40625 -84.609375 L 56.40625 -56.40625 L 141 -56.40625 L 141 -112.796875 L 28.203125 -112.796875 L 28.203125 -141 L 0 -141 L 0 -197.40625 L 28.203125 -197.40625 L 28.203125 -225.609375 L 169.203125 -225.609375 L 169.203125 -197.40625 L 197.40625 -197.40625 L 197.40625 -169.203125 L 141 -169.203125 L 141 -197.40625 L 56.40625 -197.40625 L 56.40625 -141 L 169.203125 -141 L 169.203125 -112.796875 L 197.40625 -112.796875 L 197.40625 -56.40625 L 169.203125 -56.40625 L 169.203125 -28.203125 Z M 28.203125 -28.203125 "/></g></g></g><g fill="#ff00ff" fill-opacity="1"><g transform="translate(56.482613, 315.496899)"><g><path d="M 56.40625 -28.203125 L 56.40625 -56.40625 L 28.203125 -56.40625 L 28.203125 -84.609375 L 0 -84.609375 L 0 -169.203125 L 28.203125 -169.203125 L 28.203125 -197.40625 L 56.40625 -197.40625 L 56.40625 -225.609375 L 169.203125 -225.609375 L 169.203125 -197.40625 L 197.40625 -197.40625 L 197.40625 -169.203125 L 141 -169.203125 L 141 -197.40625 L 84.609375 -197.40625 L 84.609375 -169.203125 L 56.40625 -169.203125 L 56.40625 -84.609375 L 84.609375 -84.609375 L 84.609375 -56.40625 L 141 -56.40625 L 141 -84.609375 L 197.40625 -84.609375 L 197.40625 -56.40625 L 169.203125 -56.40625 L 169.203125 -28.203125 Z M 56.40625 -28.203125 "/></g></g></g><g fill="#ff00ff" fill-opacity="1"><g transform="translate(282.094438, 315.496899)"><g><path d="M 28.203125 -28.203125 L 28.203125 -56.40625 L 0 -56.40625 L 0 -84.609375 L 56.40625 -84.609375 L 56.40625 -56.40625 L 141 -56.40625 L 141 -112.796875 L 28.203125 -112.796875 L 28.203125 -141 L 0 -141 L 0 -197.40625 L 28.203125 -197.40625 L 28.203125 -225.609375 L 169.203125 -225.609375 L 169.203125 -197.40625 L 197.40625 -197.40625 L 197.40625 -169.203125 L 141 -169.203125 L 141 -197.40625 L 56.40625 -197.40625 L 56.40625 -141 L 169.203125 -141 L 169.203125 -112.796875 L 197.40625 -112.796875 L 197.40625 -56.40625 L 169.203125 -56.40625 L 169.203125 -28.203125 Z M 28.203125 -28.203125 "/></g></g></g><g fill="#ff00ff" fill-opacity="1"><g transform="translate(507.706262, 315.496899)"><g><path d="M 28.203125 -28.203125 L 28.203125 -56.40625 L 0 -56.40625 L 0 -84.609375 L 56.40625 -84.609375 L 56.40625 -56.40625 L 141 -56.40625 L 141 -112.796875 L 28.203125 -112.796875 L 28.203125 -141 L 0 -141 L 0 -197.40625 L 28.203125 -197.40625 L 28.203125 -225.609375 L 169.203125 -225.609375 L 169.203125 -197.40625 L 197.40625 -197.40625 L 197.40625 -169.203125 L 141 -169.203125 L 141 -197.40625 L 56.40625 -197.40625 L 56.40625 -141 L 169.203125 -141 L 169.203125 -112.796875 L 197.40625 -112.796875 L 197.40625 -56.40625 L 169.203125 -56.40625 L 169.203125 -28.203125 Z M 28.203125 -28.203125 "/></g></g></g><g fill="#ff00ff" fill-opacity="1"><g transform="translate(744.036507, 327.708473)"><g><path d="M 0 -28.203125 L 0 -225.609375 L 197.40625 -225.609375 L 197.40625 -197.40625 L 56.40625 -197.40625 L 56.40625 -141 L 169.203125 -141 L 169.203125 -112.796875 L 56.40625 -112.796875 L 56.40625 -28.203125 Z M 0 -28.203125 "/></g></g></g><g fill="#ff00ff" fill-opacity="1"><g transform="translate(969.648332, 327.708473)"><g><path d="M 28.203125 -28.203125 L 28.203125 -56.40625 L 0 -56.40625 L 0 -225.609375 L 56.40625 -225.609375 L 56.40625 -56.40625 L 141 -56.40625 L 141 -225.609375 L 197.40625 -225.609375 L 197.40625 -56.40625 L 169.203125 -56.40625 L 169.203125 -28.203125 Z M 28.203125 -28.203125 "/></g></g></g><g fill="#ff00ff" fill-opacity="1"><g transform="translate(1195.260157, 327.708473)"><g><path d="M 0 -28.203125 L 0 -225.609375 L 56.40625 -225.609375 L 56.40625 -197.40625 L 84.609375 -197.40625 L 84.609375 -169.203125 L 112.796875 -169.203125 L 112.796875 -141 L 141 -141 L 141 -225.609375 L 197.40625 -225.609375 L 197.40625 -28.203125 L 141 -28.203125 L 141 -84.609375 L 112.796875 -84.609375 L 112.796875 -112.796875 L 84.609375 -112.796875 L 84.609375 -141 L 56.40625 -141 L 56.40625 -28.203125 Z M 0 -28.203125 "/></g></g></g><g fill="#00ffff" fill-opacity="1"><g transform="translate(729.935812, 303.285326)"><g><path d="M 0 -28.203125 L 0 -225.609375 L 197.40625 -225.609375 L 197.40625 -197.40625 L 56.40625 -197.40625 L 56.40625 -141 L 169.203125 -141 L 169.203125 -112.796875 L 56.40625 -112.796875 L 56.40625 -28.203125 Z M 0 -28.203125 "/></g></g></g><g fill="#00ffff" fill-opacity="1"><g transform="translate(955.547637, 303.285326)"><g><path d="M 28.203125 -28.203125 L 28.203125 -56.40625 L 0 -56.40625 L 0 -225.609375 L 56.40625 -225.609375 L 56.40625 -56.40625 L 141 -56.40625 L 141 -225.609375 L 197.40625 -225.609375 L 197.40625 -56.40625 L 169.203125 -56.40625 L 169.203125 -28.203125 Z M 28.203125 -28.203125 "/></g></g></g><g fill="#00ffff" fill-opacity="1"><g transform="translate(1181.159462, 303.285326)"><g><path d="M 0 -28.203125 L 0 -225.609375 L 56.40625 -225.609375 L 56.40625 -197.40625 L 84.609375 -197.40625 L 84.609375 -169.203125 L 112.796875 -169.203125 L 112.796875 -141 L 141 -141 L 141 -225.609375 L 197.40625 -225.609375 L 197.40625 -28.203125 L 141 -28.203125 L 141 -84.609375 L 112.796875 -84.609375 L 112.796875 -112.796875 L 84.609375 -112.796875 L 84.609375 -141 L 56.40625 -141 L 56.40625 -28.203125 Z M 0 -28.203125 "/></g></g></g><g fill="#ffffff" fill-opacity="1"><g transform="translate(736.986148, 315.496899)"><g><path d="M 0 -28.203125 L 0 -225.609375 L 197.40625 -225.609375 L 197.40625 -197.40625 L 56.40625 -197.40625 L 56.40625 -141 L 169.203125 -141 L 169.203125 -112.796875 L 56.40625 -112.796875 L 56.40625 -28.203125 Z M 0 -28.203125 "/></g></g></g><g fill="#ffffff" fill-opacity="1"><g transform="translate(962.597972, 315.496899)"><g><path d="M 28.203125 -28.203125 L 28.203125 -56.40625 L 0 -56.40625 L 0 -225.609375 L 56.40625 -225.609375 L 56.40625 -56.40625 L 141 -56.40625 L 141 -225.609375 L 197.40625 -225.609375 L 197.40625 -56.40625 L 169.203125 -56.40625 L 169.203125 -28.203125 Z M 28.203125 -28.203125 "/></g></g></g><g fill="#ffffff" fill-opacity="1"><g transform="translate(1188.209797, 315.496899)"><g><path d="M 0 -28.203125 L 0 -225.609375 L 56.40625 -225.609375 L 56.40625 -197.40625 L 84.609375 -197.40625 L 84.609375 -169.203125 L 112.796875 -169.203125 L 112.796875 -141 L 141 -141 L 141 -225.609375 L 197.40625 -225.609375 L 197.40625 -28.203125 L 141 -28.203125 L 141 -84.609375 L 112.796875 -84.609375 L 112.796875 -112.796875 L 84.609375 -112.796875 L 84.609375 -141 L 56.40625 -141 L 56.40625 -28.203125 Z M 0 -28.203125 "/></g></g></g></svg>