<?xml version="1.0" standalone="no"?>
<!DOCTYPE svg PUBLIC "-//W3C//DTD SVG 20010904//EN"
 "http://www.w3.org/TR/2001/REC-SVG-20010904/DTD/svg10.dtd">
<svg version="1.0" xmlns="http://www.w3.org/2000/svg"
 width="1400.000000pt" height="1400.000000pt" viewBox="0 0 1400.000000 1400.000000"
 preserveAspectRatio="xMidYMid meet">
<metadata>
Created by potrace 1.14, written by Peter Selinger 2001-2017
</metadata>
<g transform="translate(0.000000,1400.000000) scale(0.100000,-0.100000)"
fill="#000000" stroke="none">
<path d="M1920 11330 l0 -260 -260 0 -260 0 0 -260 0 -260 -260 0 -260 0 0
-785 0 -785 70 0 70 0 0 -110 0 -110 190 0 190 0 0 -150 0 -150 70 0 70 0 0
-115 0 -115 190 0 190 0 0 -145 0 -145 70 0 70 0 0 -115 0 -115 1043 2 1042 3
3 258 2 257 260 0 260 0 0 265 0 265 -70 0 -69 0 -3 113 -3 112 -520 0 -520 0
-3 -257 -2 -258 -445 0 -445 0 0 145 0 145 -75 0 -75 0 0 115 0 115 -185 0
-185 0 0 665 0 665 260 0 260 0 0 260 0 260 445 0 445 0 0 -145 0 -145 70 0
70 0 0 -115 0 -115 525 0 525 0 0 265 0 265 -70 0 -69 0 -3 108 -3 107 -187 3
-188 2 0 150 0 150 -75 0 -75 0 0 110 0 110 -1040 0 -1040 0 0 -260z"/>
<path d="M5570 11330 l0 -260 -260 0 -260 0 0 -520 0 -520 65 0 65 0 0 -115 0
-115 195 0 195 0 0 -150 0 -150 65 0 65 0 0 -110 0 -110 975 0 975 0 0 -405 0
-405 -710 0 -710 0 0 145 0 145 -70 0 -69 0 -3 113 -3 112 -517 3 -518 2 0
-265 0 -265 65 0 64 0 3 -112 3 -113 193 -3 192 -2 0 -145 0 -145 65 0 64 0 3
-112 3 -113 1305 0 1305 0 3 257 2 258 258 2 257 3 3 523 2 522 -75 0 -75 0 0
115 0 115 -185 0 -184 0 -3 148 -3 147 -72 3 -73 3 0 109 0 110 -970 0 -970 0
0 405 0 405 710 0 710 0 0 -145 0 -145 70 0 70 0 0 -115 0 -115 525 0 525 0
-2 263 -3 262 -72 3 -73 3 0 109 0 110 -185 0 -185 0 0 150 0 150 -75 0 -75 0
0 110 0 110 -1300 0 -1300 0 0 -260z"/>
<path d="M9730 11330 l0 -260 -257 -2 -258 -3 -3 -517 -2 -518 70 0 70 0 0
-115 0 -115 190 0 189 0 3 -147 3 -148 68 -3 67 -3 0 -109 0 -110 975 0 975 0
0 -405 0 -405 -710 0 -710 0 0 145 0 145 -70 0 -69 0 -3 113 -3 112 -520 0
-520 0 0 -260 0 -260 67 -3 67 -3 3 -112 3 -112 187 -3 187 -2 3 -143 3 -142
67 -3 67 -3 3 -112 3 -112 1303 -3 1302 -2 0 260 0 260 263 2 262 3 3 523 2
522 -75 0 -75 0 0 115 0 115 -190 0 -190 0 0 150 0 150 -70 0 -70 0 0 110 0
110 -970 0 -970 0 0 405 0 405 710 0 710 0 0 -145 0 -145 70 0 70 0 0 -115 0
-115 523 2 522 3 0 260 0 260 -72 3 -73 3 0 109 0 110 -190 0 -190 0 0 150 0
150 -70 0 -70 0 0 110 0 110 -1305 0 -1305 0 0 -260z"/>
<path d="M875 6898 c-3 -7 -4 -827 -3 -1823 l3 -1810 63 -3 62 -3 0 -114 0
-115 65 0 65 0 0 -110 0 -110 525 0 525 0 0 780 0 780 1040 0 1040 0 0 265 0
265 -65 0 -65 0 0 110 0 110 -65 0 -65 0 0 115 0 115 -910 0 -910 0 0 290 0
290 1300 0 1300 0 0 265 0 265 -65 0 -65 0 0 115 0 115 -65 0 -65 0 0 110 0
110 -1820 0 c-1447 0 -1822 -3 -1825 -12z"/>
<path d="M5040 5345 l0 -1565 65 0 65 0 0 -115 0 -115 65 0 65 0 0 -110 0
-110 130 0 130 0 0 -35 0 -35 65 0 65 0 0 -115 0 -115 65 0 65 0 0 -110 0
-110 1305 0 1305 0 0 260 0 260 260 0 260 0 0 1565 0 1565 -65 0 -65 0 0 115
0 115 -65 0 -65 0 0 110 0 110 -520 0 -520 0 -2 -1562 -3 -1563 -647 -3 -648
-2 0 1340 0 1340 -65 0 -64 0 -3 113 -3 112 -67 3 -68 3 0 109 0 110 -520 0
-520 0 0 -1565z"/>
<path d="M9210 5085 l0 -1825 65 0 65 0 0 -115 0 -115 65 0 65 0 0 -110 0
-110 520 0 520 0 0 1040 0 1040 129 0 130 0 3 -32 c3 -33 3 -33 66 -36 l62 -3
0 -109 0 -110 65 0 65 0 0 -115 0 -115 129 0 130 0 3 -32 c3 -33 3 -33 66 -36
l62 -3 0 -114 0 -115 65 0 65 0 0 -110 0 -110 130 0 130 0 0 -295 0 -295 65 0
65 0 0 -115 0 -115 65 0 65 0 0 -110 0 -110 525 0 525 0 0 1825 0 1825 -65 0
-65 0 0 115 0 115 -65 0 -64 0 -3 108 -3 107 -522 3 -523 2 0 -780 0 -780
-125 0 -125 0 0 35 0 35 -65 0 -65 0 0 110 0 110 -70 0 -70 0 0 115 0 115
-125 0 -125 0 0 35 0 35 -65 0 -64 0 -3 113 -3 112 -67 3 -68 3 0 109 0 110
-130 0 -130 0 0 35 0 35 -65 0 -65 0 0 115 0 115 -65 0 -65 0 0 110 0 110
-520 0 -520 0 0 -1825z"/>
</g>
</svg>
