<svg xmlns="http://www.w3.org/2000/svg" xmlns:xlink="http://www.w3.org/1999/xlink" width="1400" zoomAndPan="magnify" viewBox="0 0 1050 1049.999947" height="1400" preserveAspectRatio="xMidYMid meet" version="1.0"><defs><g/></defs><g fill="#00ffff" fill-opacity="1"><g transform="translate(65.92774, 493.340437)"><g><path d="M 78.140625 -39.0625 L 78.140625 -78.140625 L 39.0625 -78.140625 L 39.0625 -117.203125 L 0 -117.203125 L 0 -234.421875 L 39.0625 -234.421875 L 39.0625 -273.484375 L 78.140625 -273.484375 L 78.140625 -312.5625 L 234.421875 -312.5625 L 234.421875 -273.484375 L 273.484375 -273.484375 L 273.484375 -234.421875 L 195.34375 -234.421875 L 195.34375 -273.484375 L 117.203125 -273.484375 L 117.203125 -234.421875 L 78.140625 -234.421875 L 78.140625 -117.203125 L 117.203125 -117.203125 L 117.203125 -78.140625 L 195.34375 -78.140625 L 195.34375 -117.203125 L 273.484375 -117.203125 L 273.484375 -78.140625 L 234.421875 -78.140625 L 234.421875 -39.0625 Z M 78.140625 -39.0625 "/></g></g></g><g fill="#00ffff" fill-opacity="1"><g transform="translate(378.491685, 493.340437)"><g><path d="M 39.0625 -39.0625 L 39.0625 -78.140625 L 0 -78.140625 L 0 -117.203125 L 78.140625 -117.203125 L 78.140625 -78.140625 L 195.34375 -78.140625 L 195.34375 -156.28125 L 39.0625 -156.28125 L 39.0625 -195.34375 L 0 -195.34375 L 0 -273.484375 L 39.0625 -273.484375 L 39.0625 -312.5625 L 234.421875 -312.5625 L 234.421875 -273.484375 L 273.484375 -273.484375 L 273.484375 -234.421875 L 195.34375 -234.421875 L 195.34375 -273.484375 L 78.140625 -273.484375 L 78.140625 -195.34375 L 234.421875 -195.34375 L 234.421875 -156.28125 L 273.484375 -156.28125 L 273.484375 -78.140625 L 234.421875 -78.140625 L 234.421875 -39.0625 Z M 39.0625 -39.0625 "/></g></g></g><g fill="#00ffff" fill-opacity="1"><g transform="translate(691.055629, 493.340437)"><g><path d="M 39.0625 -39.0625 L 39.0625 -78.140625 L 0 -78.140625 L 0 -117.203125 L 78.140625 -117.203125 L 78.140625 -78.140625 L 195.34375 -78.140625 L 195.34375 -156.28125 L 39.0625 -156.28125 L 39.0625 -195.34375 L 0 -195.34375 L 0 -273.484375 L 39.0625 -273.484375 L 39.0625 -312.5625 L 234.421875 -312.5625 L 234.421875 -273.484375 L 273.484375 -273.484375 L 273.484375 -234.421875 L 195.34375 -234.421875 L 195.34375 -273.484375 L 78.140625 -273.484375 L 78.140625 -195.34375 L 234.421875 -195.34375 L 234.421875 -156.28125 L 273.484375 -156.28125 L 273.484375 -78.140625 L 234.421875 -78.140625 L 234.421875 -39.0625 Z M 39.0625 -39.0625 "/></g></g></g><g fill="#ff00ff" fill-opacity="1"><g transform="translate(76.486868, 510.238574)"><g><path d="M 78.140625 -39.0625 L 78.140625 -78.140625 L 39.0625 -78.140625 L 39.0625 -117.203125 L 0 -117.203125 L 0 -234.421875 L 39.0625 -234.421875 L 39.0625 -273.484375 L 78.140625 -273.484375 L 78.140625 -312.5625 L 234.421875 -312.5625 L 234.421875 -273.484375 L 273.484375 -273.484375 L 273.484375 -234.421875 L 195.34375 -234.421875 L 195.34375 -273.484375 L 117.203125 -273.484375 L 117.203125 -234.421875 L 78.140625 -234.421875 L 78.140625 -117.203125 L 117.203125 -117.203125 L 117.203125 -78.140625 L 195.34375 -78.140625 L 195.34375 -117.203125 L 273.484375 -117.203125 L 273.484375 -78.140625 L 234.421875 -78.140625 L 234.421875 -39.0625 Z M 78.140625 -39.0625 "/></g></g></g><g fill="#ff00ff" fill-opacity="1"><g transform="translate(389.050812, 510.238574)"><g><path d="M 39.0625 -39.0625 L 39.0625 -78.140625 L 0 -78.140625 L 0 -117.203125 L 78.140625 -117.203125 L 78.140625 -78.140625 L 195.34375 -78.140625 L 195.34375 -156.28125 L 39.0625 -156.28125 L 39.0625 -195.34375 L 0 -195.34375 L 0 -273.484375 L 39.0625 -273.484375 L 39.0625 -312.5625 L 234.421875 -312.5625 L 234.421875 -273.484375 L 273.484375 -273.484375 L 273.484375 -234.421875 L 195.34375 -234.421875 L 195.34375 -273.484375 L 78.140625 -273.484375 L 78.140625 -195.34375 L 234.421875 -195.34375 L 234.421875 -156.28125 L 273.484375 -156.28125 L 273.484375 -78.140625 L 234.421875 -78.140625 L 234.421875 -39.0625 Z M 39.0625 -39.0625 "/></g></g></g><g fill="#ff00ff" fill-opacity="1"><g transform="translate(701.614757, 510.238574)"><g><path d="M 39.0625 -39.0625 L 39.0625 -78.140625 L 0 -78.140625 L 0 -117.203125 L 78.140625 -117.203125 L 78.140625 -78.140625 L 195.34375 -78.140625 L 195.34375 -156.28125 L 39.0625 -156.28125 L 39.0625 -195.34375 L 0 -195.34375 L 0 -273.484375 L 39.0625 -273.484375 L 39.0625 -312.5625 L 234.421875 -312.5625 L 234.421875 -273.484375 L 273.484375 -273.484375 L 273.484375 -234.421875 L 195.34375 -234.421875 L 195.34375 -273.484375 L 78.140625 -273.484375 L 78.140625 -195.34375 L 234.421875 -195.34375 L 234.421875 -156.28125 L 273.484375 -156.28125 L 273.484375 -78.140625 L 234.421875 -78.140625 L 234.421875 -39.0625 Z M 39.0625 -39.0625 "/></g></g></g><g fill="#ff00ff" fill-opacity="1"><g transform="translate(85.071729, 878.248662)"><g><path d="M 0 -39.0625 L 0 -312.5625 L 273.484375 -312.5625 L 273.484375 -273.484375 L 78.140625 -273.484375 L 78.140625 -195.34375 L 234.421875 -195.34375 L 234.421875 -156.28125 L 78.140625 -156.28125 L 78.140625 -39.0625 Z M 0 -39.0625 "/></g></g></g><g fill="#ff00ff" fill-opacity="1"><g transform="translate(397.635674, 878.248662)"><g><path d="M 39.0625 -39.0625 L 39.0625 -78.140625 L 0 -78.140625 L 0 -312.5625 L 78.140625 -312.5625 L 78.140625 -78.140625 L 195.34375 -78.140625 L 195.34375 -312.5625 L 273.484375 -312.5625 L 273.484375 -78.140625 L 234.421875 -78.140625 L 234.421875 -39.0625 Z M 39.0625 -39.0625 "/></g></g></g><g fill="#ff00ff" fill-opacity="1"><g transform="translate(710.199619, 878.248662)"><g><path d="M 0 -39.0625 L 0 -312.5625 L 78.140625 -312.5625 L 78.140625 -273.484375 L 117.203125 -273.484375 L 117.203125 -234.421875 L 156.28125 -234.421875 L 156.28125 -195.34375 L 195.34375 -195.34375 L 195.34375 -312.5625 L 273.484375 -312.5625 L 273.484375 -39.0625 L 195.34375 -39.0625 L 195.34375 -117.203125 L 156.28125 -117.203125 L 156.28125 -156.28125 L 117.203125 -156.28125 L 117.203125 -195.34375 L 78.140625 -195.34375 L 78.140625 -39.0625 Z M 0 -39.0625 "/></g></g></g><g fill="#00ffff" fill-opacity="1"><g transform="translate(65.536518, 844.412697)"><g><path d="M 0 -39.0625 L 0 -312.5625 L 273.484375 -312.5625 L 273.484375 -273.484375 L 78.140625 -273.484375 L 78.140625 -195.34375 L 234.421875 -195.34375 L 234.421875 -156.28125 L 78.140625 -156.28125 L 78.140625 -39.0625 Z M 0 -39.0625 "/></g></g></g><g fill="#00ffff" fill-opacity="1"><g transform="translate(378.100463, 844.412697)"><g><path d="M 39.0625 -39.0625 L 39.0625 -78.140625 L 0 -78.140625 L 0 -312.5625 L 78.140625 -312.5625 L 78.140625 -78.140625 L 195.34375 -78.140625 L 195.34375 -312.5625 L 273.484375 -312.5625 L 273.484375 -78.140625 L 234.421875 -78.140625 L 234.421875 -39.0625 Z M 39.0625 -39.0625 "/></g></g></g><g fill="#00ffff" fill-opacity="1"><g transform="translate(690.664408, 844.412697)"><g><path d="M 0 -39.0625 L 0 -312.5625 L 78.140625 -312.5625 L 78.140625 -273.484375 L 117.203125 -273.484375 L 117.203125 -234.421875 L 156.28125 -234.421875 L 156.28125 -195.34375 L 195.34375 -195.34375 L 195.34375 -312.5625 L 273.484375 -312.5625 L 273.484375 -39.0625 L 195.34375 -39.0625 L 195.34375 -117.203125 L 156.28125 -117.203125 L 156.28125 -156.28125 L 117.203125 -156.28125 L 117.203125 -195.34375 L 78.140625 -195.34375 L 78.140625 -39.0625 Z M 0 -39.0625 "/></g></g></g><g fill="#ffffff" fill-opacity="1"><g transform="translate(75.304124, 861.33068)"><g><path d="M 0 -39.0625 L 0 -312.5625 L 273.484375 -312.5625 L 273.484375 -273.484375 L 78.140625 -273.484375 L 78.140625 -195.34375 L 234.421875 -195.34375 L 234.421875 -156.28125 L 78.140625 -156.28125 L 78.140625 -39.0625 Z M 0 -39.0625 "/></g></g></g><g fill="#ffffff" fill-opacity="1"><g transform="translate(387.868069, 861.33068)"><g><path d="M 39.0625 -39.0625 L 39.0625 -78.140625 L 0 -78.140625 L 0 -312.5625 L 78.140625 -312.5625 L 78.140625 -78.140625 L 195.34375 -78.140625 L 195.34375 -312.5625 L 273.484375 -312.5625 L 273.484375 -78.140625 L 234.421875 -78.140625 L 234.421875 -39.0625 Z M 39.0625 -39.0625 "/></g></g></g><g fill="#ffffff" fill-opacity="1"><g transform="translate(700.432014, 861.33068)"><g><path d="M 0 -39.0625 L 0 -312.5625 L 78.140625 -312.5625 L 78.140625 -273.484375 L 117.203125 -273.484375 L 117.203125 -234.421875 L 156.28125 -234.421875 L 156.28125 -195.34375 L 195.34375 -195.34375 L 195.34375 -312.5625 L 273.484375 -312.5625 L 273.484375 -39.0625 L 195.34375 -39.0625 L 195.34375 -117.203125 L 156.28125 -117.203125 L 156.28125 -156.28125 L 117.203125 -156.28125 L 117.203125 -195.34375 L 78.140625 -195.34375 L 78.140625 -39.0625 Z M 0 -39.0625 "/></g></g></g></svg>